<?xml version="1.0" encoding="UTF-8" standalone="no"?>
<svg
   xmlns:dc="http://purl.org/dc/elements/1.1/"
   xmlns:cc="http://creativecommons.org/ns#"
   xmlns:rdf="http://www.w3.org/1999/02/22-rdf-syntax-ns#"
   xmlns:svg="http://www.w3.org/2000/svg"
   xmlns="http://www.w3.org/2000/svg"
   viewBox="0 0 310.73999 308.73868"
   height="308.73868"
   width="310.73999"
   xml:space="preserve"
   id="svg2"
   version="1.1"><metadata
     id="metadata8"><rdf:RDF><cc:Work
         rdf:about=""><dc:format>image/svg+xml</dc:format><dc:type
           rdf:resource="http://purl.org/dc/dcmitype/StillImage" /></cc:Work></rdf:RDF></metadata><defs
     id="defs6" /><g
     transform="matrix(1.3333333,0,0,-1.3333333,0,308.73867)"
     id="g10"><g
       transform="translate(117.278,115.777)"
       id="g12"><g
         id="g14"><g
           id="g16"><g
             id="g18"><path
               id="path20"
               style="fill:none;stroke:#000000;stroke-width:0.79701;stroke-linecap:butt;stroke-linejoin:miter;stroke-miterlimit:10;stroke-dasharray:none;stroke-opacity:1"
               d="m -19.84311,0 c 0,6.26218 -5.07635,11.33855 -11.33855,11.33855 -6.26217,0 -11.33854,-5.07637 -11.33854,-11.33855 0,-6.26218 5.07637,-11.33855 11.33854,-11.33855 6.2622,0 11.33855,5.07637 11.33855,11.33855 z M 37.9846,0 c 0,6.26218 -5.07637,11.33855 -11.33854,11.33855 -6.26219,0 -11.33855,-5.07637 -11.33855,-11.33855 0,-6.26218 5.07636,-11.33855 11.33855,-11.33855 6.26217,0 11.33854,5.07637 11.33854,11.33855 z M -73.41855,0 c 0,6.26218 -5.07637,11.33855 -11.33855,11.33855 -6.26219,0 -11.33856,-5.07637 -11.33856,-11.33855 0,-6.26218 5.07637,-11.33855 11.33856,-11.33855 6.26218,0 11.33855,5.07637 11.33855,11.33855 z" /></g><g
             id="g22"><path
               id="path24"
               style="fill:#0000b3;fill-opacity:1;fill-rule:nonzero;stroke:#0000b3;stroke-width:0.3985;stroke-linecap:butt;stroke-linejoin:miter;stroke-miterlimit:10;stroke-dasharray:none;stroke-opacity:1"
               d="m 28.34679,-11.33855 c 0,0.9393 -0.76143,1.70075 -1.70073,1.70075 -0.9393,0 -1.70075,-0.76145 -1.70075,-1.70075 0,-0.9393 0.76145,-1.70073 1.70075,-1.70073 0.9393,0 1.70073,0.76143 1.70073,1.70073 z m -57.8277,0 c 0,0.9393 -0.76145,1.70075 -1.70075,1.70075 -0.9393,0 -1.70073,-0.76145 -1.70073,-1.70075 0,-0.9393 0.76143,-1.70073 1.70073,-1.70073 0.9393,0 1.70075,0.76143 1.70075,1.70073 z" /></g><g
             id="g26"><g
               id="g28"><path
                 id="path30"
                 style="fill:none;stroke:#0000b3;stroke-width:0.79701;stroke-linecap:butt;stroke-linejoin:miter;stroke-miterlimit:10;stroke-dasharray:none;stroke-opacity:1"
                 d="M 26.64606,-11.33855 V -109.4187" /><g
                 id="g32"><g
                   id="g34"><g
                     id="g36"><g
                       transform="rotate(-90,-17.648025,-44.294085)"
                       id="g38"><g
                         id="g40"><path
                           id="path42"
                           style="fill:none;stroke:#0000b3;stroke-width:0.79701;stroke-linecap:round;stroke-linejoin:round;stroke-miterlimit:10;stroke-dasharray:none;stroke-opacity:1"
                           d="M -2.55046,3.11095 C -2.0845,1.24435 -1.04614,0.36295 0,0 -1.04614,-0.36295 -2.0845,-1.24435 -2.55046,-3.11095" /></g></g></g></g></g></g><g
               id="g44"><path
                 id="path46"
                 style="fill:none;stroke:#0000b3;stroke-width:0.79701;stroke-linecap:butt;stroke-linejoin:miter;stroke-miterlimit:10;stroke-dasharray:none;stroke-opacity:1"
                 d="m -31.18166,-11.33855 v -97.22976" /><g
                 id="g48"><g
                   id="g50"><g
                     id="g52"><g
                       transform="rotate(-90,-46.340785,-15.159125)"
                       id="g54"><g
                         id="g56"><path
                           id="path58"
                           style="fill:none;stroke:#0000b3;stroke-width:0.79701;stroke-linecap:round;stroke-linejoin:round;stroke-miterlimit:10;stroke-dasharray:none;stroke-opacity:1"
                           d="M -2.55046,3.11095 C -2.0845,1.24435 -1.04614,0.36295 0,0 -1.04614,-0.36295 -2.0845,-1.24435 -2.55046,-3.11095" /></g></g></g></g></g></g></g><g
             id="g60"><path
               id="path62"
               style="fill:#b3e6fa;fill-opacity:0.7;fill-rule:nonzero;stroke:none"
               d="M 85.04042,0 C 85.04042,17.61266 46.96713,31.89014 0,31.89014 -46.96713,31.89014 -85.04042,17.61266 -85.04042,0 c 0,-17.61266 38.07329,-31.89014 85.04042,-31.89014 46.96713,0 85.04042,14.27748 85.04042,31.89014 z" /></g><g
             id="g64"><path
               id="path66"
               style="fill:#f9b3dd;fill-opacity:0.7;fill-rule:nonzero;stroke:none"
               d="m 0,-31.89014 v -0.44177 c 0,2.20094 1.34268,5.15994 2.99898,6.60921 l 22.34884,19.55527 c 1.6563,1.44926 2.99898,4.40826 2.99898,6.60919 V -3.9851 c 0,2.20094 0,5.76926 0,7.9702 v -4.42686 c 0,2.20093 -1.34268,5.15993 -2.99898,6.60919 L 2.99898,25.7227 C 1.34268,27.17197 0,30.13097 0,32.33191 v -0.44177 m 0,0 c -46.96713,0 -85.04042,-14.27748 -85.04042,-31.89014 0,-17.61266 38.07329,-31.89014 85.04042,-31.89014" /></g><g
             id="g68"><path
               id="path70"
               style="fill:none;stroke:#660099;stroke-width:0.79701;stroke-linecap:butt;stroke-linejoin:miter;stroke-miterlimit:10;stroke-dasharray:none;stroke-opacity:1"
               d="M 85.04042,0 C 85.04042,17.61266 46.96713,31.89014 0,31.89014 -46.96713,31.89014 -85.04042,17.61266 -85.04042,0 c 0,-17.61266 38.07329,-31.89014 85.04042,-31.89014 46.96713,0 85.04042,14.27748 85.04042,31.89014 z" /></g><g
             id="g72"><g
               id="g74"><path
                 id="path76"
                 style="fill:none;stroke:#008080;stroke-width:0.79701;stroke-linecap:butt;stroke-linejoin:miter;stroke-miterlimit:10;stroke-dasharray:none;stroke-opacity:1"
                 d="M 0,-31.89014 C 0,-22.67752 28.3468,-9.2126 28.3468,0" /><g
                 id="g78"><g
                   id="g80"><g
                     id="g82"><g
                       transform="matrix(0.78058,0.62497,-0.62497,0.78058,14.54332,-15.64911)"
                       id="g84"><g
                         id="g86"><path
                           id="path88"
                           style="fill:none;stroke:#008080;stroke-width:0.79701;stroke-linecap:round;stroke-linejoin:round;stroke-miterlimit:10;stroke-dasharray:none;stroke-opacity:1"
                           d="M -2.55046,3.11095 C -2.0845,1.24435 -1.04614,0.36295 0,0 -1.04614,-0.36295 -2.0845,-1.24435 -2.55046,-3.11095" /></g></g></g></g></g></g><g
               id="g90"><path
                 id="path92"
                 style="fill:none;stroke:#b30000;stroke-width:0.79701;stroke-linecap:butt;stroke-linejoin:miter;stroke-miterlimit:10;stroke-dasharray:none;stroke-opacity:1"
                 d="M 28.3468,0 C 28.3468,9.2126 0,22.67752 0,31.89014" /><g
                 id="g94"><g
                   id="g96"><g
                     id="g98"><g
                       transform="matrix(-0.78058,0.62497,-0.62497,-0.78058,13.8034,16.24094)"
                       id="g100"><g
                         id="g102"><path
                           id="path104"
                           style="fill:none;stroke:#b30000;stroke-width:0.79701;stroke-linecap:round;stroke-linejoin:round;stroke-miterlimit:10;stroke-dasharray:none;stroke-opacity:1"
                           d="M -2.55046,3.11095 C -2.0845,1.24435 -1.04614,0.36295 0,0 -1.04614,-0.36295 -2.0845,-1.24435 -2.55046,-3.11095" /></g></g></g></g></g></g><g
               id="g106"><path
                 id="path108"
                 style="fill:none;stroke:#00598f;stroke-width:0.79701;stroke-linecap:butt;stroke-linejoin:miter;stroke-miterlimit:10;stroke-dasharray:none;stroke-opacity:1"
                 d="M 0,31.89014 C -46.96713,31.89014 -85.04042,17.61266 -85.04042,0" /><g
                 id="g110"><g
                   id="g112"><g
                     id="g114"><g
                       transform="matrix(-0.96515,-0.26154,0.26154,-0.96515,-49.37209,25.96898)"
                       id="g116"><g
                         id="g118"><path
                           id="path120"
                           style="fill:none;stroke:#00598f;stroke-width:0.79701;stroke-linecap:round;stroke-linejoin:round;stroke-miterlimit:10;stroke-dasharray:none;stroke-opacity:1"
                           d="M -2.55046,3.11095 C -2.0845,1.24435 -1.04614,0.36295 0,0 -1.04614,-0.36295 -2.0845,-1.24435 -2.55046,-3.11095" /></g></g></g></g></g></g><g
               id="g122"><path
                 id="path124"
                 style="fill:none;stroke:#660099;stroke-width:0.79701;stroke-linecap:butt;stroke-linejoin:miter;stroke-miterlimit:10;stroke-dasharray:none;stroke-opacity:1"
                 d="m -85.04042,0 c 0,-17.61266 38.07329,-31.89014 85.04042,-31.89014" /><g
                 id="g126"><g
                   id="g128"><g
                     id="g130"><g
                       transform="matrix(0.97197,-0.23488,0.23488,0.97197,-46.39351,-26.73157)"
                       id="g132"><g
                         id="g134"><path
                           id="path136"
                           style="fill:none;stroke:#660099;stroke-width:0.79701;stroke-linecap:round;stroke-linejoin:round;stroke-miterlimit:10;stroke-dasharray:none;stroke-opacity:1"
                           d="M -2.55046,3.11095 C -2.0845,1.24435 -1.04614,0.36295 0,0 -1.04614,-0.36295 -2.0845,-1.24435 -2.55046,-3.11095" /></g></g></g></g></g></g><g
               id="g138"><path
                 id="path140"
                 style="fill:none;stroke:#b300cc;stroke-width:0.79701;stroke-linecap:butt;stroke-linejoin:miter;stroke-miterlimit:10;stroke-dasharray:none;stroke-opacity:1"
                 d="M 0,-31.89014 C 46.96713,-31.89014 85.04042,-17.61266 85.04042,0 85.04042,17.61266 46.96713,31.89014 0,31.89014" /><g
                 id="g142"><g
                   id="g144"><g
                     id="g146"><g
                       transform="matrix(-0.30223,0.95317,-0.95317,-0.30223,84.56154,3.42584)"
                       id="g148"><g
                         id="g150"><path
                           id="path152"
                           style="fill:none;stroke:#b300cc;stroke-width:0.79701;stroke-linecap:round;stroke-linejoin:round;stroke-miterlimit:10;stroke-dasharray:none;stroke-opacity:1"
                           d="M -2.55046,3.11095 C -2.0845,1.24435 -1.04614,0.36295 0,0 -1.04614,-0.36295 -2.0845,-1.24435 -2.55046,-3.11095" /></g></g></g></g></g></g></g><g
             id="g154"><path
               id="path156"
               style="fill:#ffffff;fill-opacity:1;fill-rule:nonzero;stroke:#ffffff;stroke-width:0.3985;stroke-linecap:butt;stroke-linejoin:miter;stroke-miterlimit:10;stroke-dasharray:none;stroke-opacity:1"
               d="m -80.78857,0 c 0,2.34824 -1.9036,4.25183 -4.25185,4.25183 -2.34825,0 -4.25185,-1.90359 -4.25185,-4.25183 0,-2.34824 1.9036,-4.25183 4.25185,-4.25183 2.34825,0 4.25185,1.90359 4.25185,4.25183 z" /></g><g
             id="g158"><path
               id="path160"
               style="fill:#ffffff;fill-opacity:1;fill-rule:nonzero;stroke:none"
               d="m -84.7571,-4.25183 c 6.26218,0 11.33855,1.90359 11.33855,4.25183 0,2.34824 -5.07637,4.25183 -11.33855,4.25183" /></g><g
             id="g162"><path
               id="path164"
               style="fill:none;stroke:#ec008c;stroke-width:0.79701;stroke-linecap:butt;stroke-linejoin:miter;stroke-miterlimit:10;stroke-dasharray:none;stroke-opacity:1"
               d="m -84.7571,-4.25183 c 6.26218,0 11.33855,1.90359 11.33855,4.25183" /></g><g
             id="g166"><path
               id="path168"
               style="fill:none;stroke:#ec008c;stroke-width:0.79701;stroke-linecap:round;stroke-linejoin:miter;stroke-miterlimit:10;stroke-dasharray:0.79701, 1.99255;stroke-dashoffset:0;stroke-opacity:1"
               d="m -73.41812,0 c 0,2.34824 -5.07636,4.25183 -11.33855,4.25183" /></g><g
             id="g170"><path
               id="path172"
               style="fill:#ffffff;fill-opacity:1;fill-rule:nonzero;stroke:#ffffff;stroke-width:0.3985;stroke-linecap:butt;stroke-linejoin:miter;stroke-miterlimit:10;stroke-dasharray:none;stroke-opacity:1"
               d="m 37.9846,0 c 0,2.34824 -5.07637,4.25183 -11.33854,4.25183 -6.26219,0 -11.33855,-1.90359 -11.33855,-4.25183 0,-2.34824 5.07636,-4.25183 11.33855,-4.25183 6.26217,0 11.33854,1.90359 11.33854,4.25183 z" /></g><g
             id="g174"><path
               id="path176"
               style="fill:none;stroke:#00adef;stroke-width:0.79701;stroke-linecap:butt;stroke-linejoin:miter;stroke-miterlimit:10;stroke-dasharray:none;stroke-opacity:1"
               d="m 26.64606,-4.25183 c 6.26217,0 11.33854,1.90359 11.33854,4.25183" /></g><g
             id="g178"><path
               id="path180"
               style="fill:none;stroke:#00adef;stroke-width:0.79701;stroke-linecap:round;stroke-linejoin:miter;stroke-miterlimit:10;stroke-dasharray:0.79701, 1.99255;stroke-dashoffset:0;stroke-opacity:1"
               d="m 37.98462,0 c 0,2.34824 -5.07637,4.25183 -11.33855,4.25183" /></g><g
             id="g182"><path
               id="path184"
               style="fill:none;stroke:#ec008c;stroke-width:0.79701;stroke-linecap:round;stroke-linejoin:miter;stroke-miterlimit:10;stroke-dasharray:0.79701, 1.99255;stroke-dashoffset:0;stroke-opacity:1"
               d="M 26.64606,4.25183 C 20.38387,4.25183 15.30751,2.34824 15.30751,0" /></g><g
             id="g186"><path
               id="path188"
               style="fill:none;stroke:#ec008c;stroke-width:0.79701;stroke-linecap:butt;stroke-linejoin:miter;stroke-miterlimit:10;stroke-dasharray:none;stroke-opacity:1"
               d="m 15.30708,0 c 0,-2.34824 5.07636,-4.25183 11.33855,-4.25183" /></g><g
             id="g190"><path
               id="path192"
               style="fill:#ffffff;fill-opacity:1;fill-rule:nonzero;stroke:none"
               d="m -19.84311,0 c 0,2.34824 -5.07635,4.25183 -11.33855,4.25183 -6.26217,0 -11.33854,-1.90359 -11.33854,-4.25183 0,-2.34824 5.07637,-4.25183 11.33854,-4.25183 6.2622,0 11.33855,1.90359 11.33855,4.25183 z" /></g><g
             id="g194"><path
               id="path196"
               style="fill:none;stroke:#ec008c;stroke-width:0.79701;stroke-linecap:butt;stroke-linejoin:miter;stroke-miterlimit:10;stroke-dasharray:none;stroke-opacity:1"
               d="m -42.5202,0 c 0,-2.34824 5.07637,-4.25183 11.33854,-4.25183 6.2622,0 11.33855,1.90359 11.33855,4.25183" /></g><g
             id="g198"><path
               id="path200"
               style="fill:none;stroke:#ec008c;stroke-width:0.79701;stroke-linecap:round;stroke-linejoin:miter;stroke-miterlimit:10;stroke-dasharray:0.79701, 1.99255;stroke-dashoffset:0;stroke-opacity:1"
               d="m -42.5202,0 c 0,2.34824 5.07637,4.25183 11.33854,4.25183 6.2622,0 11.33855,-1.90359 11.33855,-4.25183" /></g><g
             id="g202"><path
               id="path204"
               style="fill:none;stroke:#000000;stroke-width:0.79701;stroke-linecap:butt;stroke-linejoin:miter;stroke-miterlimit:10;stroke-dasharray:none;stroke-opacity:1"
               d="m -19.84267,0 c 0,6.26218 -5.07637,11.33855 -11.33854,11.33855 -6.26218,0 -11.33855,-5.07637 -11.33855,-11.33855 m -30.89836,0 c 0,6.26218 -5.07636,11.33855 -11.33855,11.33855 -6.26217,0 -11.33854,-5.07637 -11.33854,-11.33855 M 37.98462,0 c 0,6.26218 -5.07637,11.33855 -11.33855,11.33855 C 20.38388,11.33855 15.30753,6.26218 15.30753,0 M -96.09566,0 c 0,-2.34824 5.07637,-4.25183 11.33856,-4.25183" /></g><g
             id="g206"><path
               id="path208"
               style="fill:none;stroke:#000000;stroke-width:0.79701;stroke-linecap:round;stroke-linejoin:miter;stroke-miterlimit:10;stroke-dasharray:0.79701, 1.99255;stroke-dashoffset:0;stroke-opacity:1"
               d="m -96.09566,0 c 0,2.34824 5.07637,4.25183 11.33856,4.25183" /></g><g
             id="g210"><path
               id="path212"
               style="fill:#000000;fill-opacity:1;fill-rule:nonzero;stroke:#000000;stroke-width:0.79701;stroke-linecap:butt;stroke-linejoin:miter;stroke-miterlimit:10;stroke-dasharray:none;stroke-opacity:1"
               d="m 0.85036,-31.89014 c 0,0.46965 -0.38072,0.85038 -0.85036,0.85038 -0.46964,0 -0.85036,-0.38073 -0.85036,-0.85038 0,-0.46965 0.38072,-0.85037 0.85036,-0.85037 0.46964,0 0.85036,0.38072 0.85036,0.85037 z" /></g><g
             id="g214"><path
               id="path216"
               style="fill:#000000;fill-opacity:1;fill-rule:nonzero;stroke:#000000;stroke-width:0.79701;stroke-linecap:butt;stroke-linejoin:miter;stroke-miterlimit:10;stroke-dasharray:none;stroke-opacity:1"
               d="m 0.85036,31.89014 c 0,0.46965 -0.38072,0.85037 -0.85036,0.85037 -0.46964,0 -0.85036,-0.38072 -0.85036,-0.85037 0,-0.46965 0.38072,-0.85038 0.85036,-0.85038 0.46964,0 0.85036,0.38073 0.85036,0.85038 z" /></g><g
             id="g218"><path
               id="path220"
               style="fill:#660099;fill-opacity:1;fill-rule:nonzero;stroke:#660099;stroke-width:0.79701;stroke-linecap:butt;stroke-linejoin:miter;stroke-miterlimit:10;stroke-dasharray:none;stroke-opacity:1"
               d="m -83.36217,-4.43826 c 0,0.46965 -0.38072,0.85037 -0.85037,0.85037 -0.46965,0 -0.85037,-0.38072 -0.85037,-0.85037 0,-0.46964 0.38072,-0.85036 0.85037,-0.85036 0.46965,0 0.85037,0.38072 0.85037,0.85036 z" /></g><g
             id="g222"><path
               id="path224"
               style="fill:#00598f;fill-opacity:1;fill-rule:nonzero;stroke:#00598f;stroke-width:0.79701;stroke-linecap:butt;stroke-linejoin:miter;stroke-miterlimit:10;stroke-dasharray:none;stroke-opacity:1"
               d="m -83.36217,4.43826 c 0,0.46964 -0.38072,0.85036 -0.85037,0.85036 -0.46965,0 -0.85037,-0.38072 -0.85037,-0.85036 0,-0.46965 0.38072,-0.85037 0.85037,-0.85037 0.46965,0 0.85037,0.38072 0.85037,0.85037 z" /></g><g
             id="g226"><path
               id="path228"
               style="fill:#008080;fill-opacity:1;fill-rule:nonzero;stroke:#008080;stroke-width:0.79701;stroke-linecap:butt;stroke-linejoin:miter;stroke-miterlimit:10;stroke-dasharray:none;stroke-opacity:1"
               d="m 27.49641,-4.25183 c 0,0.46965 -0.38071,0.85037 -0.85035,0.85037 -0.46966,0 -0.85038,-0.38072 -0.85038,-0.85037 0,-0.46965 0.38072,-0.85037 0.85038,-0.85037 0.46964,0 0.85035,0.38072 0.85035,0.85037 z" /></g><g
             id="g230"><path
               id="path232"
               style="fill:#b30000;fill-opacity:1;fill-rule:nonzero;stroke:#b30000;stroke-width:0.79701;stroke-linecap:butt;stroke-linejoin:miter;stroke-miterlimit:10;stroke-dasharray:none;stroke-opacity:1"
               d="m 27.49641,4.25183 c 0,0.46965 -0.38071,0.85037 -0.85035,0.85037 -0.46966,0 -0.85038,-0.38072 -0.85038,-0.85037 0,-0.46965 0.38072,-0.85037 0.85038,-0.85037 0.46964,0 0.85035,0.38072 0.85035,0.85037 z" /></g><g
             id="g234"><path
               id="path236"
               style="fill:none;stroke:#000000;stroke-width:0.79701;stroke-linecap:butt;stroke-linejoin:miter;stroke-miterlimit:10;stroke-dasharray:none;stroke-opacity:1"
               d="M 113.38724,0 C 113.38724,62.62283 62.62283,113.38724 0,113.38724 -62.62283,113.38724 -113.38724,62.62283 -113.38724,0 c 0,-62.62283 50.76441,-113.38724 113.38724,-113.38724 62.62283,0 113.38724,50.76441 113.38724,113.38724 z m 0,0 c 0,-27.39749 -50.76441,-49.6069 -113.38724,-49.6069 -62.62283,0 -113.38724,22.20941 -113.38724,49.6069" /></g><g
             id="g238"><path
               id="path240"
               style="fill:none;stroke:#000000;stroke-width:0.79701;stroke-linecap:round;stroke-linejoin:miter;stroke-miterlimit:10;stroke-dasharray:2.98883, 2.98883;stroke-dashoffset:0;stroke-opacity:1"
               d="M 113.38724,0 C 113.38724,27.39749 62.62283,49.6069 0,49.6069 -62.62283,49.6069 -113.38724,27.39749 -113.38724,0" /></g><g
             id="g242"><path
               id="path244"
               style="fill:#0000b3;fill-opacity:1;fill-rule:nonzero;stroke:#0000b3;stroke-width:0.3985;stroke-linecap:butt;stroke-linejoin:miter;stroke-miterlimit:10;stroke-dasharray:none;stroke-opacity:1"
               d="m -111.6865,0 c 0,0.93929 -0.76144,1.70073 -1.70074,1.70073 -0.9393,0 -1.70073,-0.76144 -1.70073,-1.70073 0,-0.93929 0.76143,-1.70073 1.70073,-1.70073 0.9393,0 1.70074,0.76144 1.70074,1.70073 z M 28.34679,109.702 c 0,0.9393 -0.76143,1.70074 -1.70073,1.70074 -0.9393,0 -1.70075,-0.76144 -1.70075,-1.70074 0,-0.9393 0.76145,-1.70073 1.70075,-1.70073 0.9393,0 1.70073,0.76143 1.70073,1.70073 z m -57.8277,-1.13369 c 0,0.9393 -0.76145,1.70073 -1.70075,1.70073 -0.9393,0 -1.70073,-0.76143 -1.70073,-1.70073 0,-0.9393 0.76143,-1.70074 1.70073,-1.70074 0.9393,0 1.70075,0.76144 1.70075,1.70074 z M 28.34679,-109.702 c 0,0.9393 -0.76143,1.70073 -1.70073,1.70073 -0.9393,0 -1.70075,-0.76143 -1.70075,-1.70073 0,-0.9393 0.76145,-1.70074 1.70075,-1.70074 0.9393,0 1.70073,0.76144 1.70073,1.70074 z m -57.8277,1.13369 c 0,0.9393 -0.76145,1.70074 -1.70075,1.70074 -0.9393,0 -1.70073,-0.76144 -1.70073,-1.70074 0,-0.9393 0.76143,-1.70073 1.70073,-1.70073 0.9393,0 1.70075,0.76143 1.70075,1.70073 z M -94.39491,0 c 0,0.93929 -0.76145,1.70073 -1.70075,1.70073 -0.93928,0 -1.70073,-0.76144 -1.70073,-1.70073 0,-0.93929 0.76145,-1.70073 1.70073,-1.70073 0.9393,0 1.70075,0.76144 1.70075,1.70073 z m 122.7417,11.33855 c 0,0.9393 -0.76143,1.70073 -1.70073,1.70073 -0.9393,0 -1.70075,-0.76143 -1.70075,-1.70073 0,-0.9393 0.76145,-1.70075 1.70075,-1.70075 0.9393,0 1.70073,0.76145 1.70073,1.70075 z m -57.8277,0 c 0,0.9393 -0.76145,1.70073 -1.70075,1.70073 -0.9393,0 -1.70073,-0.76143 -1.70073,-1.70073 0,-0.9393 0.76143,-1.70075 1.70073,-1.70075 0.9393,0 1.70075,0.76145 1.70075,1.70075 z" /></g><g
             id="g246"><g
               id="g248"><path
                 id="path250"
                 style="fill:none;stroke:#0000b3;stroke-width:0.79701;stroke-linecap:butt;stroke-linejoin:miter;stroke-miterlimit:10;stroke-dasharray:none;stroke-opacity:1"
                 d="M 26.64606,11.33855 V 109.4187" /><g
                 id="g252"><g
                   id="g254"><g
                     id="g256"><g
                       transform="rotate(90,-17.648025,44.294085)"
                       id="g258"><g
                         id="g260"><path
                           id="path262"
                           style="fill:none;stroke:#0000b3;stroke-width:0.79701;stroke-linecap:round;stroke-linejoin:round;stroke-miterlimit:10;stroke-dasharray:none;stroke-opacity:1"
                           d="M -2.55046,3.11095 C -2.0845,1.24435 -1.04614,0.36295 0,0 -1.04614,-0.36295 -2.0845,-1.24435 -2.55046,-3.11095" /></g></g></g></g></g></g><g
               id="g264"><path
                 id="path266"
                 style="fill:none;stroke:#0000b3;stroke-width:0.79701;stroke-linecap:butt;stroke-linejoin:miter;stroke-miterlimit:10;stroke-dasharray:none;stroke-opacity:1"
                 d="m -31.18166,11.33855 v 97.22976" /><g
                 id="g268"><g
                   id="g270"><g
                     id="g272"><g
                       transform="rotate(90,-46.340785,15.159125)"
                       id="g274"><g
                         id="g276"><path
                           id="path278"
                           style="fill:none;stroke:#0000b3;stroke-width:0.79701;stroke-linecap:round;stroke-linejoin:round;stroke-miterlimit:10;stroke-dasharray:none;stroke-opacity:1"
                           d="M -2.55046,3.11095 C -2.0845,1.24435 -1.04614,0.36295 0,0 -1.04614,-0.36295 -2.0845,-1.24435 -2.55046,-3.11095" /></g></g></g></g></g></g><g
               id="g280"><path
                 id="path282"
                 style="fill:none;stroke:#0000b3;stroke-width:0.79701;stroke-linecap:butt;stroke-linejoin:miter;stroke-miterlimit:10;stroke-dasharray:none;stroke-opacity:1"
                 d="m -113.38724,0 h 17.29158" /><g
                 id="g284"><g
                   id="g286"><g
                     id="g288"><g
                       transform="translate(-104.79407)"
                       id="g290"><g
                         id="g292"><path
                           id="path294"
                           style="fill:none;stroke:#0000b3;stroke-width:0.79701;stroke-linecap:round;stroke-linejoin:round;stroke-miterlimit:10;stroke-dasharray:none;stroke-opacity:1"
                           d="M -2.55046,3.11095 C -2.0845,1.24435 -1.04614,0.36295 0,0 -1.04614,-0.36295 -2.0845,-1.24435 -2.55046,-3.11095" /></g></g></g></g></g></g></g></g></g></g></g></svg>