<?xml version="1.0" encoding="UTF-8" standalone="no"?>
<svg
   xmlns:dc="http://purl.org/dc/elements/1.1/"
   xmlns:cc="http://creativecommons.org/ns#"
   xmlns:rdf="http://www.w3.org/1999/02/22-rdf-syntax-ns#"
   xmlns:svg="http://www.w3.org/2000/svg"
   xmlns="http://www.w3.org/2000/svg"
   viewBox="0 0 180.10001 179.86533"
   height="179.86533"
   width="180.10001"
   xml:space="preserve"
   id="svg2"
   version="1.1"><metadata
     id="metadata8"><rdf:RDF><cc:Work
         rdf:about=""><dc:format>image/svg+xml</dc:format><dc:type
           rdf:resource="http://purl.org/dc/dcmitype/StillImage" /></cc:Work></rdf:RDF></metadata><defs
     id="defs6" /><g
     transform="matrix(1.3333333,0,0,-1.3333333,0,179.86533)"
     id="g10"><g
       transform="translate(66.171,59.819)"
       id="g12"><g
         id="g14"><g
           id="g16"><g
             id="g18"><path
               id="path20"
               style="fill:#fbcce8;fill-opacity:0.7;fill-rule:nonzero;stroke:none"
               d="m -21.2601,-56.69362 -1.25159,30.03465 c -0.09158,2.19892 -1.15542,5.46592 -2.37619,7.29712 l -1.24855,1.87279 c -1.22077,1.83121 -3.47197,4.57726 -5.02827,6.13351 l -22.71102,22.7111 c -1.5563,1.55625 -3.80749,4.3023 -5.02826,6.13351 l -1.24853,1.87279 c -1.22077,1.8312 -2.28462,5.0982 -2.37619,7.29712 l -1.08579,26.05319 c -0.09156,2.19891 -0.16581,5.76562 -0.16581,7.96657 v -3.98511 c 0,7.82783 9.51832,14.17338 21.2601,14.17338 11.74179,0 21.2601,-6.34555 21.2601,-14.17338 v 0 C -21.2601,41.0379 -11.74178,28.3468 0,28.3468 c 11.74178,0 21.2601,12.6911 21.2601,28.34682 v 0 c 0,-6.87756 7.40872,-12.76398 17.56839,-13.95821 m 10e-6,2.2e-4 v -1.68416 c 0,-2.20095 -1.234,-5.27359 -2.75623,-6.86304 L -4.51515,-8.19032 C -6.03738,-9.77975 -7.2714,-12.8524 -7.2714,-15.05334 v 2.30094 c 0,-2.20094 0,-2.20094 0,0 v -3.9851 C -15.66856,-22.8499 -21.26,-38.82095 -21.26,-56.69363" /></g><g
             id="g22"><path
               id="path24"
               style="fill:#f9b3dd;fill-opacity:0.7;fill-rule:nonzero;stroke:none"
               d="M 49.79161,70.01233 C 38.75801,72.68951 26.55783,68.89702 22.54205,61.54128 18.52626,54.18555 24.21501,46.05212 35.24861,43.37492 40.65479,42.06328 46.63063,42.26915 51.80583,43.94437" /></g><g
             id="g26"><path
               id="path28"
               style="fill:#cceffc;fill-opacity:0.8;fill-rule:nonzero;stroke:none"
               d="M 49.79161,70.01233 C 60.82521,67.33513 66.51395,59.2017 62.49817,51.84598 60.60982,48.38676 56.77275,45.5521 51.80583,43.94437" /></g><g
             id="g30"><path
               id="path32"
               style="fill:#f9b3dd;fill-opacity:0.7;fill-rule:nonzero;stroke:none"
               d="m 21.2601,-56.69362 c 0,23.48357 -9.51832,42.52022 -21.2601,42.52022 -11.74178,0 -21.2601,-19.03665 -21.2601,-42.52022 v 0 c 0,7.82785 9.51832,14.1734 21.2601,14.1734 11.74178,0 21.2601,-6.34555 21.2601,-14.1734" /></g><g
             id="g34"><path
               id="path36"
               style="fill:#f680c5;fill-opacity:0.7;fill-rule:nonzero;stroke:none"
               d="M 36.85092,-5.66927 25.35799,-18.31152 c -1.48039,-1.62847 -2.75179,-4.73122 -2.83973,-6.93027 l -1.0989,-27.47012 c -0.08796,-2.19905 -0.15926,-2.19754 -0.15926,0.0034 v -3.98511 c 0,12.5674 -2.78079,24.49442 -7.59428,32.57205 m -2.3e-4,-2.3e-4 0.93628,0.62436 c 1.83114,1.22083 4.2268,3.74431 5.35092,5.63642 l 3.52379,5.93098 c 1.1241,1.89211 3.76625,3.8586 5.90146,4.39235 l 7.47288,1.86842" /></g><g
             id="g38"><path
               id="path40"
               style="fill:#f799d1;fill-opacity:0.7;fill-rule:nonzero;stroke:none"
               d="m -21.2601,-56.69362 -1.25159,30.03465 c -0.09158,2.19892 -1.15542,5.46592 -2.37619,7.29712 l -1.24855,1.87279 c -1.22077,1.83121 -3.47197,4.57726 -5.02827,6.13351 l -22.71102,22.7111 c -1.5563,1.55625 -3.80749,4.3023 -5.02826,6.13351 l -1.24853,1.87279 c -1.22077,1.8312 -2.28462,5.0982 -2.37619,7.29712 l -1.08579,26.05319 c -0.09156,2.19891 -0.16581,5.76562 -0.16581,7.96657 v -3.98511 c 0,-7.82785 9.51832,-14.1734 21.2601,-14.1734 11.74179,0 21.2601,6.34555 21.2601,14.1734 v 0 C -21.2601,41.0379 -11.74178,28.3468 0,28.3468 c 11.74178,0 21.2601,12.6911 21.2601,28.34682 v 0 c 0,-6.87756 7.40872,-12.76398 17.56839,-13.95821 m 10e-6,2.2e-4 v -1.68416 c 0,-2.20095 -1.234,-5.27359 -2.75623,-6.86304 L -4.51515,-8.19032 C -6.03738,-9.77975 -7.2714,-12.8524 -7.2714,-15.05334 v 2.30094 c 0,-2.20094 0,-2.20094 0,0 v -3.9851 C -15.66856,-22.8499 -21.26,-38.82095 -21.26,-56.69363" /></g><g
             id="g42"><path
               id="path44"
               style="fill:#99def9;fill-opacity:0.7;fill-rule:nonzero;stroke:none"
               d="m 39.68535,-2.83484 v 1.68459 c 0,2.20092 0.70022,5.62603 1.56398,7.6503 l 9.81317,22.99614 c 0.86375,2.02424 1.4286,5.44413 1.26164,7.63862 l -0.21586,2.83634 c -0.16698,2.19448 -0.30234,5.75759 -0.30234,7.95854 v -3.98511 c 7.3221,2.37007 11.97438,7.32243 11.97438,12.74927 m -2e-5,-2.3e-4 -1.2516,-30.03465 C 62.43713,24.46005 61.37328,21.19305 60.15251,19.36185 L 58.90398,17.48906 C 57.68321,15.65785 55.43202,12.91179 53.87572,11.35548 L 39.68535,-2.83484" /></g><g
             id="g46"><path
               id="path48"
               style="fill:#66cef5;fill-opacity:0.6;fill-rule:nonzero;stroke:none"
               d="m 51.80594,43.94458 0.5182,-6.80977 C 52.4911,34.94032 51.92625,31.52043 51.0625,29.49619 L 41.24933,6.50005 C 40.38557,4.47578 39.68535,1.05067 39.68535,-1.15025 v -1.68459 l -2.83443,-2.83443 -7.47288,-1.86842 c -2.13521,-0.53375 -4.77736,-2.50024 -5.90146,-4.39235 l -3.52379,-5.93098 c -1.12412,-1.89211 -3.51978,-4.41559 -5.35092,-5.63642 l -0.93628,-0.62436 c -5.81754,9.76325 -13.80077,12.57906 -20.93732,7.38408 l 1.5e-4,1.68444 c 10e-5,2.20089 1.2342,5.27353 2.75643,6.86296 l 40.58742,42.37875 c 1.52223,1.58945 2.75623,4.66209 2.75623,6.86304 v 1.68416 c 4.40798,-0.51796 8.95127,-0.0943 12.97744,1.20893" /></g><g
             id="g50"><g
               id="g52"><path
                 id="path54"
                 style="fill:none;stroke:#c94c4c;stroke-width:0.79701;stroke-linecap:round;stroke-linejoin:miter;stroke-miterlimit:10;stroke-dasharray:2.98883, 2.98883;stroke-dashoffset:0;stroke-opacity:1"
                 d="m 39.68535,-2.83484 v 1.68459 c 0,2.20092 0.70022,5.62603 1.56398,7.6503 l 9.81317,22.99614 c 0.86375,2.02424 1.42714,5.444 1.25836,7.63831 l -2.52925,32.87783" /><g
                 id="g56"><g
                   id="g58"><g
                     id="g60"><g
                       transform="matrix(0.39246,0.91972,-0.91972,0.39246,50.65094,28.5328)"
                       id="g62"><g
                         id="g64"><path
                           id="path66"
                           style="fill:none;stroke:#c94c4c;stroke-width:0.79701;stroke-linecap:round;stroke-linejoin:round;stroke-miterlimit:10;stroke-dasharray:none;stroke-opacity:1"
                           d="M -2.55046,3.11095 C -2.0845,1.24435 -1.04614,0.36295 0,0 -1.04614,-0.36295 -2.0845,-1.24435 -2.55046,-3.11095" /></g></g></g></g></g></g></g><g
             id="g68"><path
               id="path70"
               style="fill:none;stroke:#000000;stroke-width:0.3985;stroke-linecap:round;stroke-linejoin:miter;stroke-miterlimit:10;stroke-dasharray:none;stroke-opacity:1"
               d="m 21.2601,-56.69362 1.25159,30.03465 c 0.09158,2.19892 1.15542,5.46592 2.37619,7.29712 l 1.24855,1.87279 c 1.22077,1.83121 3.47197,4.57726 5.02827,6.13351 l 22.71102,22.7111 c 1.5563,1.55625 3.80749,4.3023 5.02826,6.13351 l 1.24853,1.87279 c 1.22077,1.8312 2.28462,5.0982 2.37619,7.29712 l 1.2516,30.03465 m -85.0404,-113.38724 -1.25159,30.03465 c -0.09158,2.19892 -1.15542,5.46592 -2.37619,7.29712 l -1.24855,1.87279 c -1.22077,1.83121 -3.47197,4.57726 -5.02827,6.13351 l -22.71102,22.7111 c -1.5563,1.55625 -3.80749,4.3023 -5.02826,6.13351 l -1.24853,1.87279 c -1.22077,1.8312 -2.28462,5.0982 -2.37619,7.29712 l -1.2516,30.03465 m 85.0404,0 C 21.2601,41.0379 11.74178,28.3468 0,28.3468 c -11.74178,0 -21.2601,12.6911 -21.2601,28.34682" /></g><g
             id="g72"><g
               id="g74"><path
                 id="path76"
                 style="fill:none;stroke:#008080;stroke-width:0.79701;stroke-linecap:butt;stroke-linejoin:miter;stroke-miterlimit:10;stroke-dasharray:none;stroke-opacity:1"
                 d="m 38.8285,42.73563 v -1.68416 c 0,-2.20095 -1.234,-5.27359 -2.75623,-6.86304 L -4.51515,-8.19032 C -6.03738,-9.77975 -7.2714,-12.8524 -7.2714,-15.05334 v -1.68416" /><g
                 id="g78"><g
                   id="g80"><g
                     id="g82"><g
                       transform="matrix(-0.69164,-0.72217,0.72217,-0.69164,16.05977,13.29247)"
                       id="g84"><g
                         id="g86"><path
                           id="path88"
                           style="fill:none;stroke:#008080;stroke-width:0.79701;stroke-linecap:round;stroke-linejoin:round;stroke-miterlimit:10;stroke-dasharray:none;stroke-opacity:1"
                           d="M -2.55046,3.11095 C -2.0845,1.24435 -1.04614,0.36295 0,0 -1.04614,-0.36295 -2.0845,-1.24435 -2.55046,-3.11095" /></g></g></g></g></g></g></g><g
             id="g90"><path
               id="path92"
               style="fill:none;stroke:#008080;stroke-width:0.79701;stroke-linecap:butt;stroke-linejoin:miter;stroke-miterlimit:10;stroke-dasharray:none;stroke-opacity:1"
               d="m -7.2714,-16.7375 v 1.68416 c 0,2.20094 1.23402,5.27359 2.75625,6.86302 l 40.58742,42.37875 c 1.52223,1.58945 2.75623,4.66209 2.75623,6.86304 v 1.68416" /></g><g
             id="g94"><path
               id="path96"
               style="fill:none;stroke:#b30000;stroke-width:0.79701;stroke-linecap:round;stroke-linejoin:miter;stroke-miterlimit:10;stroke-dasharray:none;stroke-opacity:1"
               d="m 13.66559,-24.1218 0.93628,0.62436 c 1.83114,1.22083 4.2268,3.74431 5.35092,5.63642 l 3.52379,5.93098 c 1.1241,1.89211 3.76625,3.8586 5.90146,4.39235 l 7.47288,1.86842" /></g><g
             id="g98"><path
               id="path100"
               style="fill:none;stroke:#b30000;stroke-width:0.79701;stroke-linecap:round;stroke-linejoin:miter;stroke-miterlimit:10;stroke-dasharray:none;stroke-opacity:1"
               d="M 49.79161,70.01233 51.80594,43.94458" /></g><g
             id="g102"><path
               id="path104"
               style="fill:none;stroke:#f24dae;stroke-width:0.79701;stroke-linecap:butt;stroke-linejoin:miter;stroke-miterlimit:10;stroke-dasharray:none;stroke-opacity:1"
               d="m -21.2601,56.69362 c 0,7.82783 -9.51831,14.17338 -21.2601,14.17338 -11.74178,0 -21.2601,-6.34555 -21.2601,-14.17338 0,-7.82785 9.51832,-14.1734 21.2601,-14.1734 11.74179,0 21.2601,6.34555 21.2601,14.1734 z M 21.2601,-56.69362 c 0,7.82785 -9.51832,14.1734 -21.2601,14.1734 -11.74178,0 -21.2601,-6.34555 -21.2601,-14.1734 M 49.79161,70.01233 C 38.75801,72.68951 26.55783,68.89702 22.54205,61.54128 19.94456,56.7836 21.35248,51.46144 26.23409,47.5831 29.44633,45.03091 33.90656,43.31393 38.8284,42.73543" /></g><g
             id="g106"><path
               id="path108"
               style="fill:none;stroke:#00adef;stroke-width:0.79701;stroke-linecap:butt;stroke-linejoin:miter;stroke-miterlimit:10;stroke-dasharray:none;stroke-opacity:1"
               d="M 49.79161,70.01233 C 60.82521,67.33513 66.51395,59.2017 62.49817,51.84598 58.96997,45.38322 48.98807,41.54121 38.8284,42.73543" /></g><g
             id="g110"><g
               id="g112"><path
                 id="path114"
                 style="fill:none;stroke:#c200d6;stroke-width:0.79701;stroke-linecap:round;stroke-linejoin:miter;stroke-miterlimit:10;stroke-dasharray:none;stroke-opacity:1"
                 d="m 21.2601,-56.69362 c 0,23.48357 -9.51832,42.52022 -21.2601,42.52022 -11.74178,0 -21.2601,-19.03665 -21.2601,-42.52022" /><g
                 id="g116"><g
                   id="g118"><g
                     id="g120"><g
                       transform="matrix(-0.99979,-0.01898,0.01898,-0.99979,0.19226,-14.16776)"
                       id="g122"><g
                         id="g124"><path
                           id="path126"
                           style="fill:none;stroke:#c200d6;stroke-width:0.79701;stroke-linecap:round;stroke-linejoin:round;stroke-miterlimit:10;stroke-dasharray:none;stroke-opacity:1"
                           d="M -2.55046,3.11095 C -2.0845,1.24435 -1.04614,0.36295 0,0 -1.04614,-0.36295 -2.0845,-1.24435 -2.55046,-3.11095" /></g></g></g></g></g></g><g
               id="g128"><path
                 id="path130"
                 style="fill:none;stroke:#004099;stroke-width:0.79701;stroke-linecap:round;stroke-linejoin:miter;stroke-miterlimit:10;stroke-dasharray:none;stroke-opacity:1"
                 d="M -7.2714,-16.7375 C -15.66856,-22.8499 -21.26,-38.82095 -21.26,-56.69363" /><g
                 id="g132"><g
                   id="g134"><g
                     id="g136"><g
                       transform="matrix(-0.28084,-0.9597,0.9597,-0.28084,-18.2379,-34.83984)"
                       id="g138"><g
                         id="g140"><path
                           id="path142"
                           style="fill:none;stroke:#004099;stroke-width:0.79701;stroke-linecap:round;stroke-linejoin:round;stroke-miterlimit:10;stroke-dasharray:none;stroke-opacity:1"
                           d="M -2.55046,3.11095 C -2.0845,1.24435 -1.04614,0.36295 0,0 -1.04614,-0.36295 -2.0845,-1.24435 -2.55046,-3.11095" /></g></g></g></g></g></g></g><g
             id="g144"><g
               id="g146"><path
                 id="path148"
                 style="fill:none;stroke:#660099;stroke-width:0.79701;stroke-linecap:round;stroke-linejoin:miter;stroke-miterlimit:10;stroke-dasharray:none;stroke-opacity:1"
                 d="m 21.2601,-56.69363 c 0,12.56739 -2.78079,24.49441 -7.59428,32.57205" /><g
                 id="g150"><g
                   id="g152"><g
                     id="g154"><g
                       transform="matrix(-0.31152,0.95021,-0.95021,-0.31152,17.90193,-33.75374)"
                       id="g156"><g
                         id="g158"><path
                           id="path160"
                           style="fill:none;stroke:#660099;stroke-width:0.79701;stroke-linecap:round;stroke-linejoin:round;stroke-miterlimit:10;stroke-dasharray:none;stroke-opacity:1"
                           d="M -2.55046,3.11095 C -2.0845,1.24435 -1.04614,0.36295 0,0 -1.04614,-0.36295 -2.0845,-1.24435 -2.55046,-3.11095" /></g></g></g></g></g></g></g><g
             id="g162"><path
               id="path164"
               style="fill:#660099;fill-opacity:1;fill-rule:nonzero;stroke:none"
               d="m 22.39377,-56.69362 c 0,0.62612 -0.50757,1.13368 -1.13367,1.13368 -0.62611,0 -1.13368,-0.50756 -1.13368,-1.13368 0,-0.6261 0.50757,-1.13367 1.13368,-1.13367 0.6261,0 1.13367,0.50757 1.13367,1.13367 z" /></g><g
             id="g166"><path
               id="path168"
               style="fill:#004099;fill-opacity:1;fill-rule:nonzero;stroke:none"
               d="m -20.12642,-56.69362 c 0,0.62612 -0.50757,1.13368 -1.13368,1.13368 -0.6261,0 -1.13367,-0.50756 -1.13367,-1.13368 0,-0.6261 0.50757,-1.13367 1.13367,-1.13367 0.62611,0 1.13368,0.50757 1.13368,1.13367 z" /></g><g
             id="g170"><path
               id="path172"
               style="fill:#000000;fill-opacity:1;fill-rule:nonzero;stroke:none"
               d="m -6.13771,-16.7375 c 0,0.6261 -0.50757,1.13366 -1.13369,1.13366 -0.62609,0 -1.13366,-0.50756 -1.13366,-1.13366 0,-0.62612 0.50757,-1.13369 1.13366,-1.13369 0.62612,0 1.13369,0.50757 1.13369,1.13369 z m 20.93697,-7.3843 c 0,0.62612 -0.50757,1.13369 -1.13367,1.13369 -0.62612,0 -1.13369,-0.50757 -1.13369,-1.13369 0,-0.6261 0.50757,-1.13366 1.13369,-1.13366 0.6261,0 1.13367,0.50756 1.13367,1.13366 z" /></g><g
             id="g174"><path
               id="path176"
               style="fill:#b30000;fill-opacity:1;fill-rule:nonzero;stroke:none"
               d="m 50.64198,70.01233 c 0,0.46965 -0.38072,0.85036 -0.85037,0.85036 -0.46965,0 -0.85037,-0.38071 -0.85037,-0.85036 0,-0.46965 0.38072,-0.85037 0.85037,-0.85037 0.46965,0 0.85037,0.38072 0.85037,0.85037 z" /></g><g
             id="g178"><path
               id="path180"
               style="fill:#008080;fill-opacity:1;fill-rule:nonzero;stroke:none"
               d="m 39.67888,42.73563 c 0,0.46965 -0.38072,0.85037 -0.85038,0.85037 -0.46964,0 -0.85037,-0.38072 -0.85037,-0.85037 0,-0.46965 0.38073,-0.85038 0.85037,-0.85038 0.46966,0 0.85038,0.38073 0.85038,0.85038 z" /></g></g></g></g></g></svg>