<?xml version="1.0" encoding="UTF-8" standalone="no"?>
<svg
   xmlns:dc="http://purl.org/dc/elements/1.1/"
   xmlns:cc="http://creativecommons.org/ns#"
   xmlns:rdf="http://www.w3.org/1999/02/22-rdf-syntax-ns#"
   xmlns:svg="http://www.w3.org/2000/svg"
   xmlns="http://www.w3.org/2000/svg"
   viewBox="0 0 114.448 129.868"
   height="129.868"
   width="114.448"
   xml:space="preserve"
   id="svg2"
   version="1.1"><metadata
     id="metadata8"><rdf:RDF><cc:Work
         rdf:about=""><dc:format>image/svg+xml</dc:format><dc:type
           rdf:resource="http://purl.org/dc/dcmitype/StillImage" /></cc:Work></rdf:RDF></metadata><defs
     id="defs6" /><g
     transform="matrix(1.3333333,0,0,-1.3333333,0,129.868)"
     id="g10"><g
       transform="translate(0.398,6.068)"
       id="g12"><g
         id="g14"><g
           id="g16"><g
             id="g18"><path
               id="path20"
               style="fill:none;stroke:#000000;stroke-width:0.79701;stroke-linecap:butt;stroke-linejoin:miter;stroke-miterlimit:10;stroke-dasharray:none;stroke-opacity:1"
               d="m 56.69362,85.04042 c 0,3.13109 -6.34555,5.66928 -14.1734,5.66928 -7.82785,0 -14.1734,-2.53819 -14.1734,-5.66928" /></g><g
             id="g22"><path
               id="path24"
               style="fill:none;stroke:#000000;stroke-width:0.79701;stroke-linecap:butt;stroke-linejoin:miter;stroke-miterlimit:10;stroke-dasharray:2.98883, 2.98883;stroke-dashoffset:0;stroke-opacity:1"
               d="m 56.69362,85.04042 c 0,-3.13109 -6.34555,-5.66927 -14.1734,-5.66927 -7.82785,0 -14.1734,2.53818 -14.1734,5.66927" /></g><g
             id="g26"><path
               id="path28"
               style="fill:none;stroke:#8080e6;stroke-width:0.79701;stroke-linecap:butt;stroke-linejoin:miter;stroke-miterlimit:10;stroke-dasharray:2.98883, 2.98883;stroke-dashoffset:0;stroke-opacity:1"
               d="M 0,23.52788 C 14.17339,28.3468 42.5202,51.02432 42.5202,79.37114" /></g><g
             id="g30"><path
               id="path32"
               style="fill:none;stroke:#8080e6;stroke-width:0.79701;stroke-linecap:butt;stroke-linejoin:miter;stroke-miterlimit:10;stroke-dasharray:2.98883, 2.98883;stroke-dashoffset:0;stroke-opacity:1"
               d="M 77.38666,36.56718 C 66.61517,25.51193 66.61517,25.51193 52.44176,24.09494" /></g><g
             id="g34"><path
               id="path36"
               style="fill:none;stroke:#8080e6;stroke-width:0.79701;stroke-linecap:butt;stroke-linejoin:miter;stroke-miterlimit:10;stroke-dasharray:2.98883, 2.98883;stroke-dashoffset:0;stroke-opacity:1"
               d="m 42.5202,41.95314 c 1.07935,-0.65247 1.80008,-4.18111 1.60977,-7.88145 -0.14483,-2.81619 -0.78831,-5.02221 -1.60977,-5.51873" /></g><g
             id="g38"><path
               id="path40"
               style="fill:none;stroke:#000000;stroke-width:0.79701;stroke-linecap:butt;stroke-linejoin:miter;stroke-miterlimit:10;stroke-dasharray:none;stroke-opacity:1"
               d="M 0,0 V 21.2601" /></g><g
             id="g42"><path
               id="path44"
               style="fill:none;stroke:#000000;stroke-width:0.79701;stroke-linecap:butt;stroke-linejoin:miter;stroke-miterlimit:10;stroke-dasharray:none;stroke-opacity:1"
               d="M 28.3468,0 V 17.00824" /></g><g
             id="g46"><path
               id="path48"
               style="fill:none;stroke:#000000;stroke-width:0.79701;stroke-linecap:butt;stroke-linejoin:miter;stroke-miterlimit:10;stroke-dasharray:none;stroke-opacity:1"
               d="M 56.69362,0 V 17.00824" /></g><g
             id="g50"><path
               id="path52"
               style="fill:none;stroke:#000000;stroke-width:0.79701;stroke-linecap:butt;stroke-linejoin:miter;stroke-miterlimit:10;stroke-dasharray:none;stroke-opacity:1"
               d="M 85.04042,0 V 21.2601" /></g><g
             id="g54"><path
               id="path56"
               style="fill:none;stroke:#000000;stroke-width:0.79701;stroke-linecap:butt;stroke-linejoin:miter;stroke-miterlimit:10;stroke-dasharray:none;stroke-opacity:1"
               d="M 28.3468,63.7803 V 85.04042" /></g><g
             id="g58"><path
               id="path60"
               style="fill:none;stroke:#000000;stroke-width:0.79701;stroke-linecap:butt;stroke-linejoin:miter;stroke-miterlimit:10;stroke-dasharray:none;stroke-opacity:1"
               d="M 56.69362,63.7803 V 85.04042" /></g><g
             id="g62"><path
               id="path64"
               style="fill:none;stroke:#000000;stroke-width:0.79701;stroke-linecap:butt;stroke-linejoin:miter;stroke-miterlimit:10;stroke-dasharray:none;stroke-opacity:1"
               d="m 56.69362,17.00824 c 0,6.26218 -6.34555,11.33855 -14.1734,11.33855 -7.82785,0 -14.1734,-5.07637 -14.1734,-11.33855" /></g><g
             id="g66"><path
               id="path68"
               style="fill:none;stroke:#000000;stroke-width:0.79701;stroke-linecap:butt;stroke-linejoin:miter;stroke-miterlimit:10;stroke-dasharray:none;stroke-opacity:1"
               d="M 0,21.2601 C 0,42.5202 28.3468,42.5202 28.3468,63.7803" /></g><g
             id="g70"><path
               id="path72"
               style="fill:none;stroke:#000000;stroke-width:0.79701;stroke-linecap:butt;stroke-linejoin:miter;stroke-miterlimit:10;stroke-dasharray:none;stroke-opacity:1"
               d="m 85.04042,21.2601 c 0,21.2601 -28.3468,21.2601 -28.3468,42.5202" /></g><g
             id="g74"><path
               id="path76"
               style="fill:none;stroke:#000000;stroke-width:0.79701;stroke-linecap:butt;stroke-linejoin:miter;stroke-miterlimit:10;stroke-dasharray:none;stroke-opacity:1"
               d="m 51.02432,45.35506 c -0.81555,-2.31258 -5.2263,-3.85674 -9.85168,-3.44899 -3.5202,0.3103 -6.27767,1.68899 -6.89832,3.44899" /></g><g
             id="g78"><path
               id="path80"
               style="fill:none;stroke:#000000;stroke-width:0.79701;stroke-linecap:butt;stroke-linejoin:miter;stroke-miterlimit:10;stroke-dasharray:none;stroke-opacity:1"
               d="M 48.18947,43.08727 C 47.91664,44.64691 45.1668,45.80063 42.04773,45.66422 39.3073,45.54436 37.1339,44.45757 36.8942,43.08727" /></g><g
             id="g82"><path
               id="path84"
               style="fill:none;stroke:#000000;stroke-width:0.79701;stroke-linecap:butt;stroke-linejoin:miter;stroke-miterlimit:10;stroke-dasharray:none;stroke-opacity:1"
               d="m 28.34679,0 c 0,3.13109 -6.34555,5.66927 -14.1734,5.66927 C 6.34554,5.66927 0,3.13109 0,0 c 0,-3.13109 6.34554,-5.66927 14.17339,-5.66927 7.82785,0 14.1734,2.53818 14.1734,5.66927 z" /></g><g
             id="g86"><path
               id="path88"
               style="fill:none;stroke:#000000;stroke-width:0.79701;stroke-linecap:butt;stroke-linejoin:miter;stroke-miterlimit:10;stroke-dasharray:none;stroke-opacity:1"
               d="m 85.0404,0 c 0,3.13109 -6.34555,5.66927 -14.1734,5.66927 -7.82785,0 -14.17338,-2.53818 -14.17338,-5.66927 0,-3.13109 6.34553,-5.66927 14.17338,-5.66927 7.82785,0 14.1734,2.53818 14.1734,5.66927 z" /></g><g
             id="g90"><path
               id="path92"
               style="fill:#0000cc;fill-opacity:1;fill-rule:nonzero;stroke:#0000cc;stroke-width:0.3985;stroke-linecap:butt;stroke-linejoin:miter;stroke-miterlimit:10;stroke-dasharray:none;stroke-opacity:1"
               d="m 14.59857,5.66927 c 0,0.23483 -0.19035,0.42518 -0.42518,0.42518 -0.23482,0 -0.42519,-0.19035 -0.42519,-0.42518 0,-0.23482 0.19037,-0.42519 0.42519,-0.42519 0.23483,0 0.42518,0.19037 0.42518,0.42519 z" /></g><g
             id="g94"><path
               id="path96"
               style="fill:#0000cc;fill-opacity:1;fill-rule:nonzero;stroke:#0000cc;stroke-width:0.3985;stroke-linecap:butt;stroke-linejoin:miter;stroke-miterlimit:10;stroke-dasharray:none;stroke-opacity:1"
               d="m 71.29219,5.66927 c 0,0.23483 -0.19035,0.42518 -0.42519,0.42518 -0.23481,0 -0.42518,-0.19035 -0.42518,-0.42518 0,-0.23482 0.19037,-0.42519 0.42518,-0.42519 0.23484,0 0.42519,0.19037 0.42519,0.42519 z" /></g><g
             id="g98"><path
               id="path100"
               style="fill:#0000cc;fill-opacity:1;fill-rule:nonzero;stroke:#0000cc;stroke-width:0.3985;stroke-linecap:butt;stroke-linejoin:miter;stroke-miterlimit:10;stroke-dasharray:none;stroke-opacity:1"
               d="m 42.94539,90.7097 c 0,0.23482 -0.19037,0.42517 -0.42519,0.42517 -0.23483,0 -0.42518,-0.19035 -0.42518,-0.42517 0,-0.23483 0.19035,-0.42518 0.42518,-0.42518 0.23482,0 0.42519,0.19035 0.42519,0.42518 z" /></g><g
             id="g102"><path
               id="path104"
               style="fill:#8080e6;fill-opacity:1;fill-rule:nonzero;stroke:#8080e6;stroke-width:0.3985;stroke-linecap:butt;stroke-linejoin:miter;stroke-miterlimit:10;stroke-dasharray:none;stroke-opacity:1"
               d="m 42.94539,79.37114 c 0,0.23482 -0.19037,0.42517 -0.42519,0.42517 -0.23483,0 -0.42518,-0.19035 -0.42518,-0.42517 0,-0.23484 0.19035,-0.42519 0.42518,-0.42519 0.23482,0 0.42519,0.19035 0.42519,0.42519 z" /></g><g
             id="g106"><path
               id="path108"
               style="fill:none;stroke:#0000cc;stroke-width:0.79701;stroke-linecap:butt;stroke-linejoin:miter;stroke-miterlimit:10;stroke-dasharray:none;stroke-opacity:1"
               d="M 53.00838,24.09494 C 70.867,42.5202 42.5202,68.03217 42.5202,90.7097" /></g><g
             id="g110"><path
               id="path112"
               style="fill:none;stroke:#0000cc;stroke-width:0.79701;stroke-linecap:butt;stroke-linejoin:miter;stroke-miterlimit:10;stroke-dasharray:none;stroke-opacity:1"
               d="M 14.17339,5.66927 C 14.17339,11.33855 8.50412,19.84267 0,22.67752" /></g><g
             id="g114"><path
               id="path116"
               style="fill:none;stroke:#0000cc;stroke-width:0.79701;stroke-linecap:butt;stroke-linejoin:miter;stroke-miterlimit:10;stroke-dasharray:none;stroke-opacity:1"
               d="m 70.867,5.66927 c 0,14.1734 0,14.1734 7.08672,31.18165" /></g><g
             id="g118"><path
               id="path120"
               style="fill:none;stroke:#0000cc;stroke-width:0.79701;stroke-linecap:butt;stroke-linejoin:miter;stroke-miterlimit:10;stroke-dasharray:none;stroke-opacity:1"
               d="m 42.5202,41.95314 c -1.07936,-0.65247 -1.80008,-4.18111 -1.60977,-7.88145 0.14484,-2.81619 0.78832,-5.02221 1.60977,-5.51873" /></g><g
             id="g122"><path
               id="path124"
               style="fill:#b30000;fill-opacity:1;fill-rule:nonzero;stroke:#b30000;stroke-width:0.3985;stroke-linecap:butt;stroke-linejoin:miter;stroke-miterlimit:10;stroke-dasharray:none;stroke-opacity:1"
               d="m 20.69307,28.3468 c 0,0.46967 -0.38074,0.8504 -0.8504,0.8504 -0.46967,0 -0.85041,-0.38073 -0.85041,-0.8504 0,-0.46966 0.38074,-0.8504 0.85041,-0.8504 0.46966,0 0.8504,0.38074 0.8504,0.8504 z" /></g><g
             id="g126"><path
               id="path128"
               style="fill:#b30000;fill-opacity:1;fill-rule:nonzero;stroke:#b30000;stroke-width:0.3985;stroke-linecap:butt;stroke-linejoin:miter;stroke-miterlimit:10;stroke-dasharray:none;stroke-opacity:1"
               d="m 66.04814,42.5202 c 0,0.46967 -0.38074,0.8504 -0.8504,0.8504 -0.46967,0 -0.8504,-0.38073 -0.8504,-0.8504 0,-0.46966 0.38073,-0.8504 0.8504,-0.8504 0.46966,0 0.8504,0.38074 0.8504,0.8504 z" /></g><g
             id="g130"><path
               id="path132"
               style="fill:#b30000;fill-opacity:1;fill-rule:nonzero;stroke:#b30000;stroke-width:0.3985;stroke-linecap:butt;stroke-linejoin:miter;stroke-miterlimit:10;stroke-dasharray:none;stroke-opacity:1"
               d="m 3.68524,11.33855 c 0,0.46966 -0.38074,0.85038 -0.8504,0.85038 -0.46967,0 -0.8504,-0.38072 -0.8504,-0.85038 0,-0.46967 0.38073,-0.85041 0.8504,-0.85041 0.46966,0 0.8504,0.38074 0.8504,0.85041 z" /></g><g
             id="g134"><path
               id="path136"
               style="fill:#b30000;fill-opacity:1;fill-rule:nonzero;stroke:#b30000;stroke-width:0.3985;stroke-linecap:butt;stroke-linejoin:miter;stroke-miterlimit:10;stroke-dasharray:none;stroke-opacity:1"
               d="m 37.70132,70.867 c 0,0.46967 -0.38073,0.8504 -0.8504,0.8504 -0.46966,0 -0.85039,-0.38073 -0.85039,-0.8504 0,-0.46966 0.38073,-0.85038 0.85039,-0.85038 0.46967,0 0.8504,0.38072 0.8504,0.85038 z" /></g><g
             id="g138"><path
               id="path140"
               style="fill:none;stroke:#0000cc;stroke-width:0.79701;stroke-linecap:butt;stroke-linejoin:miter;stroke-miterlimit:10;stroke-dasharray:none;stroke-opacity:1"
               d="m 85.04042,14.17339 c 0,3.13108 -6.34555,5.66928 -14.1734,5.66928 -7.82785,0 -14.17339,-2.5382 -14.17339,-5.66928" /></g><g
             id="g142"><path
               id="path144"
               style="fill:none;stroke:#8080e6;stroke-width:0.79701;stroke-linecap:butt;stroke-linejoin:miter;stroke-miterlimit:10;stroke-dasharray:2.98883, 2.98883;stroke-dashoffset:0;stroke-opacity:1"
               d="m 85.04042,14.17339 c 0,-3.13109 -6.34555,-5.66927 -14.1734,-5.66927 -7.82785,0 -14.17339,2.53818 -14.17339,5.66927" /></g><g
             id="g146"><path
               id="path148"
               style="fill:#b30000;fill-opacity:1;fill-rule:nonzero;stroke:#b30000;stroke-width:0.3985;stroke-linecap:butt;stroke-linejoin:miter;stroke-miterlimit:10;stroke-dasharray:none;stroke-opacity:1"
               d="m 72.56778,19.84267 c 0,0.46966 -0.38074,0.8504 -0.8504,0.8504 -0.46967,0 -0.85041,-0.38074 -0.85041,-0.8504 0,-0.46967 0.38074,-0.85041 0.85041,-0.85041 0.46966,0 0.8504,0.38074 0.8504,0.85041 z" /></g><g
             id="g150"><path
               id="path152"
               style="fill:#b30000;fill-opacity:1;fill-rule:nonzero;stroke:#b30000;stroke-width:0.3985;stroke-linecap:butt;stroke-linejoin:miter;stroke-miterlimit:10;stroke-dasharray:none;stroke-opacity:1"
               d="m 41.66986,35.43349 c 0,0.46966 -0.38074,0.8504 -0.8504,0.8504 -0.46966,0 -0.85039,-0.38074 -0.85039,-0.8504 0,-0.46967 0.38073,-0.85039 0.85039,-0.85039 0.46966,0 0.8504,0.38072 0.8504,0.85039 z" /></g></g></g></g></g></svg>