<?xml version="1.0" encoding="UTF-8" standalone="no"?>
<svg
   xmlns:dc="http://purl.org/dc/elements/1.1/"
   xmlns:cc="http://creativecommons.org/ns#"
   xmlns:rdf="http://www.w3.org/1999/02/22-rdf-syntax-ns#"
   xmlns:svg="http://www.w3.org/2000/svg"
   xmlns="http://www.w3.org/2000/svg"
   viewBox="0 0 355.27466 356.86932"
   height="356.86932"
   width="355.27466"
   xml:space="preserve"
   id="svg2"
   version="1.1"><metadata
     id="metadata8"><rdf:RDF><cc:Work
         rdf:about=""><dc:format>image/svg+xml</dc:format><dc:type
           rdf:resource="http://purl.org/dc/dcmitype/StillImage" /></cc:Work></rdf:RDF></metadata><defs
     id="defs6" /><g
     transform="matrix(1.3333333,0,0,-1.3333333,0,356.86933)"
     id="g10"><g
       transform="translate(133.228,48.787)"
       id="g12"><g
         id="g14"><g
           id="g16"><g
             id="g18"><path
               id="path20"
               style="fill:#ffffff;fill-opacity:1;fill-rule:nonzero;stroke:none"
               d="M 0,39.68533 C -62.62283,39.68533 -113.38724,21.91788 -113.38724,0 -113.38724,-21.91788 -62.62283,-39.68533 0,-39.68533 62.62283,-39.68533 113.38724,-21.91788 113.38724,0 113.38724,21.91788 62.62283,39.68533 0,39.68533" /></g><g
             id="g22"><path
               id="path24"
               style="fill:#ffffff;fill-opacity:1;fill-rule:nonzero;stroke:none"
               d="M -124.72578,-39.68533 V 209.76619 H 124.72578 V -39.68533 h -249.45156" /></g><g
             id="g26"><path
               id="path28"
               style="fill:none;stroke:#000000;stroke-width:1.19553006;stroke-linecap:butt;stroke-linejoin:miter;stroke-miterlimit:10;stroke-dasharray:none;stroke-opacity:1"
               d="M 0,39.68533 C -62.62283,39.68533 -113.38724,21.91788 -113.38724,0 -113.38724,-21.91788 -62.62283,-39.68533 0,-39.68533 62.62283,-39.68533 113.38724,-21.91788 113.38724,0 113.38724,21.91788 62.62283,39.68533 0,39.68533" /></g><g
             id="g30"><path
               id="path32"
               style="fill:#ffffff;fill-opacity:1;fill-rule:nonzero;stroke:none"
               d="M 11.33855,0 C 11.33855,3.13132 6.26218,5.6697 0,5.6697 -6.26218,5.6697 -11.33855,3.13132 -11.33855,0 c 0,-3.13132 5.07637,-5.6697 11.33855,-5.6697 6.26218,0 11.33855,2.53838 11.33855,5.6697 z" /></g><g
             id="g34"><path
               id="path36"
               style="fill:none;stroke:#000000;stroke-width:1.19553006;stroke-linecap:butt;stroke-linejoin:miter;stroke-miterlimit:10;stroke-dasharray:none;stroke-opacity:1"
               d="M 17.00824,2.83482 C 15.37712,-1.7903 6.5556,-4.87863 -2.69514,-4.06311 c -7.04041,0.62062 -12.55532,3.37794 -13.79662,6.89793" /></g><g
             id="g38"><path
               id="path40"
               style="fill:none;stroke:#000000;stroke-width:1.19553006;stroke-linecap:butt;stroke-linejoin:miter;stroke-miterlimit:10;stroke-dasharray:none;stroke-opacity:1"
               d="M 11.33855,0 C 10.79286,3.1193 5.29315,5.42676 -0.94496,5.1539 -6.42583,4.91418 -10.7726,2.74062 -11.25201,0" /></g><g
             id="g42"><path
               id="path44"
               style="fill:none;stroke:#000000;stroke-width:1.19553006;stroke-linecap:butt;stroke-linejoin:miter;stroke-miterlimit:10;stroke-dasharray:2.98883, 2.98883;stroke-dashoffset:0;stroke-opacity:1"
               d="M -113.38724,0 V 170.08086" /></g><g
             id="g46"><path
               id="path48"
               style="fill:none;stroke:#000000;stroke-width:1.19553006;stroke-linecap:butt;stroke-linejoin:miter;stroke-miterlimit:10;stroke-dasharray:2.98883, 2.98883;stroke-dashoffset:0;stroke-opacity:1"
               d="M 113.38724,0 V 170.08086" /></g><g
             id="g50"><path
               id="path52"
               style="fill:none;stroke:#000000;stroke-width:1.19553006;stroke-linecap:butt;stroke-linejoin:miter;stroke-miterlimit:10;stroke-dasharray:2.98883, 2.98883;stroke-dashoffset:0;stroke-opacity:1"
               d="M -11.33855,0 V 85.0404" /></g><g
             id="g54"><path
               id="path56"
               style="fill:none;stroke:#000000;stroke-width:1.19553006;stroke-linecap:butt;stroke-linejoin:miter;stroke-miterlimit:10;stroke-dasharray:2.98883, 2.98883;stroke-dashoffset:0;stroke-opacity:1"
               d="M 11.33855,0 V 85.0404" /></g><g
             id="g58"><path
               id="path60"
               style="fill:#e2001a;fill-opacity:1;fill-rule:nonzero;stroke:#e2001a;stroke-width:0.3985;stroke-linecap:butt;stroke-linejoin:miter;stroke-miterlimit:10;stroke-dasharray:none;stroke-opacity:1"
               d="m -43.65424,-11.33855 c 0,0.93933 -0.76147,1.70081 -1.7008,1.70081 -0.93932,0 -1.70079,-0.76148 -1.70079,-1.70081 0,-0.93933 0.76147,-1.70079 1.70079,-1.70079 0.93933,0 1.7008,0.76146 1.7008,1.70079 z" /></g><g
             id="g62"><path
               id="path64"
               style="fill:none;stroke:#e2001a;stroke-width:1.19553006;stroke-linecap:butt;stroke-linejoin:miter;stroke-miterlimit:10;stroke-dasharray:none;stroke-opacity:1"
               d="m -45.35504,-11.33855 c 0,0 2.48726,21.26732 1.70074,28.34679 -0.78651,7.07946 -6.34707,17.17086 -7.36958,22.67709 -1.02252,5.50626 -0.78653,12.28855 0,17.00829 0.78651,4.71973 5.66884,17.00824 5.66884,17.00824" /></g><g
             id="g66"><path
               id="path68"
               style="fill:none;stroke:#0070b8;stroke-width:1.19553006;stroke-linecap:butt;stroke-linejoin:miter;stroke-miterlimit:10;stroke-dasharray:2.98883, 2.98883;stroke-dashoffset:0;stroke-opacity:1"
               d="m 0,45.35504 c 3.13132,0 5.6697,7.86839 5.6697,17.57485 0,9.70645 -2.53838,17.57486 -5.6697,17.57486" /></g><g
             id="g70"><path
               id="path72"
               style="fill:none;stroke:#0070b8;stroke-width:1.19553006;stroke-linecap:butt;stroke-linejoin:miter;stroke-miterlimit:10;stroke-dasharray:2.98883, 2.98883;stroke-dashoffset:0;stroke-opacity:1"
               d="m 0,124.72578 c 3.13132,0 5.6697,-7.61473 5.6697,-17.00825 C 5.6697,98.32402 3.13132,90.70929 0,90.70929" /></g><g
             id="g74"><path
               id="path76"
               style="fill:#f6b3ba;fill-opacity:0.7;fill-rule:nonzero;stroke:#000000;stroke-width:1.19553006;stroke-linecap:butt;stroke-linejoin:miter;stroke-miterlimit:10;stroke-dasharray:none;stroke-opacity:0.7"
               d="m 0,124.72578 c -62.62283,0 -113.38724,-17.76747 -113.38724,-39.68534 0,-21.91788 50.76441,-39.68535 113.38724,-39.68535" /></g><g
             id="g78"><path
               id="path80"
               style="fill:#b3d4ea;fill-opacity:0.7;fill-rule:nonzero;stroke:#000000;stroke-width:1.19553006;stroke-linecap:butt;stroke-linejoin:miter;stroke-miterlimit:10;stroke-dasharray:none;stroke-opacity:0.7"
               d="m 0,124.72578 c 62.62283,0 113.38724,-17.76747 113.38724,-39.68534 C 113.38724,63.12256 62.62283,45.35509 0,45.35509" /></g><g
             id="g82"><path
               id="path84"
               style="fill:none;stroke:#000000;stroke-width:1.19553006;stroke-linecap:butt;stroke-linejoin:miter;stroke-miterlimit:10;stroke-dasharray:none;stroke-opacity:1"
               d="m 0,124.72578 c -62.62283,0 -113.38724,-17.76747 -113.38724,-39.68534 0,-21.91788 50.76441,-39.68535 113.38724,-39.68535" /></g><g
             id="g86"><path
               id="path88"
               style="fill:none;stroke:#000000;stroke-width:1.19553006;stroke-linecap:butt;stroke-linejoin:miter;stroke-miterlimit:10;stroke-dasharray:none;stroke-opacity:1"
               d="m 0,124.72578 c 62.62283,0 113.38724,-17.76747 113.38724,-39.68534 C 113.38724,63.12256 62.62283,45.35509 0,45.35509" /></g><g
             id="g90"><path
               id="path92"
               style="fill:#ffffff;fill-opacity:1;fill-rule:nonzero;stroke:none"
               d="m 11.33855,85.0404 c 0,3.13132 -5.07637,5.66971 -11.33855,5.66971 -6.26218,0 -11.33855,-2.53839 -11.33855,-5.66971 0,-3.13131 5.07637,-5.66969 11.33855,-5.66969 6.26218,0 11.33855,2.53838 11.33855,5.66969 z" /></g><g
             id="g94"><path
               id="path96"
               style="fill:none;stroke:#000000;stroke-width:1.19553006;stroke-linecap:butt;stroke-linejoin:miter;stroke-miterlimit:10;stroke-dasharray:none;stroke-opacity:1"
               d="M 17.00824,87.87527 C 15.37712,83.25014 6.5556,80.1618 -2.69514,80.97731 c -7.04041,0.62062 -12.55532,3.37796 -13.79662,6.89796" /></g><g
             id="g98"><path
               id="path100"
               style="fill:none;stroke:#000000;stroke-width:1.19553006;stroke-linecap:butt;stroke-linejoin:miter;stroke-miterlimit:10;stroke-dasharray:none;stroke-opacity:1"
               d="M 11.33855,85.0404 C 10.79286,88.1597 5.29315,90.46718 -0.94496,90.19432 -6.42583,89.9546 -10.7726,87.78104 -11.25201,85.0404" /></g><g
             id="g102"><path
               id="path104"
               style="fill:#cce2f1;fill-opacity:1;fill-rule:nonzero;stroke:#0070b8;stroke-width:1.19553006;stroke-linecap:butt;stroke-linejoin:miter;stroke-miterlimit:10;stroke-dasharray:none;stroke-opacity:1"
               d="m 0,45.35504 c -3.13132,0 -5.6697,7.86839 -5.6697,17.57485 0,9.70645 2.53838,17.57486 5.6697,17.57486" /></g><g
             id="g106"><path
               id="path108"
               style="fill:#cce2f1;fill-opacity:1;fill-rule:nonzero;stroke:#0070b8;stroke-width:1.19553006;stroke-linecap:butt;stroke-linejoin:miter;stroke-miterlimit:10;stroke-dasharray:none;stroke-opacity:1"
               d="m 0,124.72578 c -3.13132,0 -5.6697,-7.61473 -5.6697,-17.00825 0,-9.39351 2.53838,-17.00824 5.6697,-17.00824" /></g><g
             id="g110"><path
               id="path112"
               style="fill:#e2001a;fill-opacity:1;fill-rule:nonzero;stroke:#e2001a;stroke-width:0.3985;stroke-linecap:butt;stroke-linejoin:miter;stroke-miterlimit:10;stroke-dasharray:none;stroke-opacity:1"
               d="m -43.65424,73.70186 c 0,0.93933 -0.76147,1.70079 -1.7008,1.70079 -0.93932,0 -1.70079,-0.76146 -1.70079,-1.70079 0,-0.93933 0.76147,-1.70079 1.70079,-1.70079 0.93933,0 1.7008,0.76146 1.7008,1.70079 z" /></g><g
             id="g114"><path
               id="path116"
               style="fill:none;stroke:#e2001a;stroke-width:1.19553006;stroke-linecap:butt;stroke-linejoin:miter;stroke-miterlimit:10;stroke-dasharray:none;stroke-opacity:1"
               d="m -45.35504,73.70186 c 0,0 3.62137,21.26732 2.83484,28.3468 -0.78652,7.07947 -7.32382,17.17087 -8.50368,22.67712 -1.17986,5.50625 -0.78653,12.28855 0,17.00824 0.78651,4.7197 5.66884,17.00826 5.66884,17.00826" /></g><g
             id="g118"><path
               id="path120"
               style="fill:none;stroke:#000000;stroke-width:1.19553006;stroke-linecap:butt;stroke-linejoin:miter;stroke-miterlimit:10;stroke-dasharray:2.98883, 2.98883;stroke-dashoffset:0;stroke-opacity:1"
               d="M -11.33855,170.08086 V 85.0404" /></g><g
             id="g122"><path
               id="path124"
               style="fill:none;stroke:#000000;stroke-width:1.19553006;stroke-linecap:butt;stroke-linejoin:miter;stroke-miterlimit:10;stroke-dasharray:2.98883, 2.98883;stroke-dashoffset:0;stroke-opacity:1"
               d="M 11.33855,170.08086 V 85.0404" /></g><g
             id="g126"><path
               id="path128"
               style="fill:#ffffff;fill-opacity:0.7;fill-rule:nonzero;stroke:#000000;stroke-width:1.19553006;stroke-linecap:butt;stroke-linejoin:miter;stroke-miterlimit:10;stroke-dasharray:none;stroke-opacity:0.7"
               d="m 0,209.76619 c -62.62283,0 -113.38724,-17.76746 -113.38724,-39.68533 0,-21.91788 50.76441,-39.68535 113.38724,-39.68535 62.62283,0 113.38724,17.76747 113.38724,39.68535 0,21.91787 -50.76441,39.68533 -113.38724,39.68533" /></g><g
             id="g130"><path
               id="path132"
               style="fill:none;stroke:#000000;stroke-width:1.19553006;stroke-linecap:butt;stroke-linejoin:miter;stroke-miterlimit:10;stroke-dasharray:none;stroke-opacity:1"
               d="m 0,209.76619 c -62.62283,0 -113.38724,-17.76746 -113.38724,-39.68533 0,-21.91788 50.76441,-39.68535 113.38724,-39.68535 62.62283,0 113.38724,17.76747 113.38724,39.68535 0,21.91787 -50.76441,39.68533 -113.38724,39.68533" /></g><g
             id="g134"><path
               id="path136"
               style="fill:#ffffff;fill-opacity:1;fill-rule:nonzero;stroke:none"
               d="m 11.33855,170.08086 c 0,3.13131 -5.07637,5.66969 -11.33855,5.66969 -6.26218,0 -11.33855,-2.53838 -11.33855,-5.66969 0,-3.13132 5.07637,-5.66971 11.33855,-5.66971 6.26218,0 11.33855,2.53839 11.33855,5.66971 z" /></g><g
             id="g138"><path
               id="path140"
               style="fill:none;stroke:#000000;stroke-width:1.19553006;stroke-linecap:butt;stroke-linejoin:miter;stroke-miterlimit:10;stroke-dasharray:none;stroke-opacity:1"
               d="m 17.00824,172.91568 c -1.63112,-4.62514 -10.45264,-7.71346 -19.70338,-6.89795 -7.04041,0.62062 -12.55532,3.37795 -13.79662,6.89795" /></g><g
             id="g142"><path
               id="path144"
               style="fill:none;stroke:#000000;stroke-width:1.19553006;stroke-linecap:butt;stroke-linejoin:miter;stroke-miterlimit:10;stroke-dasharray:none;stroke-opacity:1"
               d="m 11.33855,170.08086 c -0.54569,3.11929 -6.0454,5.42677 -12.28351,5.1539 -5.48087,-0.23972 -9.82764,-2.41329 -10.30705,-5.1539" /></g><g
             id="g146"><path
               id="path148"
               style="fill:#e2001a;fill-opacity:1;fill-rule:nonzero;stroke:#e2001a;stroke-width:0.3985;stroke-linecap:butt;stroke-linejoin:miter;stroke-miterlimit:10;stroke-dasharray:none;stroke-opacity:1"
               d="m -43.65424,158.74228 c 0,0.93933 -0.76147,1.70079 -1.7008,1.70079 -0.93932,0 -1.70079,-0.76146 -1.70079,-1.70079 0,-0.93933 0.76147,-1.70081 1.70079,-1.70081 0.93933,0 1.7008,0.76148 1.7008,1.70081 z" /></g></g></g></g></g></svg>