<?xml version="1.0" encoding="UTF-8" standalone="no"?>
<svg
   xmlns:dc="http://purl.org/dc/elements/1.1/"
   xmlns:cc="http://creativecommons.org/ns#"
   xmlns:rdf="http://www.w3.org/1999/02/22-rdf-syntax-ns#"
   xmlns:svg="http://www.w3.org/2000/svg"
   xmlns="http://www.w3.org/2000/svg"
   viewBox="0 0 265.09866 265.09866"
   height="265.09866"
   width="265.09866"
   xml:space="preserve"
   id="svg2"
   version="1.1"><metadata
     id="metadata8"><rdf:RDF><cc:Work
         rdf:about=""><dc:format>image/svg+xml</dc:format><dc:type
           rdf:resource="http://purl.org/dc/dcmitype/StillImage" /></cc:Work></rdf:RDF></metadata><defs
     id="defs6" /><g
     transform="matrix(1.3333333,0,0,-1.3333333,0,265.09867)"
     id="g10"><g
       transform="translate(14.372,54.057)"
       id="g12"><g
         id="g14"><g
           id="g16"><g
             id="g18"><path
               id="path20"
               style="fill:#ffffff;fill-opacity:1;fill-rule:nonzero;stroke:#ffffff;stroke-width:0.3985;stroke-linecap:butt;stroke-linejoin:miter;stroke-miterlimit:10;stroke-dasharray:none;stroke-opacity:1"
               d="m 184.25423,45.35504 c 0,54.79498 -44.41884,99.21382 -99.21383,99.21382 -54.79498,0 -99.2138,-44.41884 -99.2138,-99.21382 0,-54.79498 44.41882,-99.21382 99.2138,-99.21382 54.79499,0 99.21383,44.41884 99.21383,99.21382 z" /></g><g
             id="g22"><path
               id="path24"
               style="fill:none;stroke:#000000;stroke-width:0.79701;stroke-linecap:butt;stroke-linejoin:miter;stroke-miterlimit:10;stroke-dasharray:none;stroke-opacity:1"
               d="m 170.08083,0 c 0,6.26218 -12.69111,11.33855 -28.34681,11.33855 -15.6557,0 -28.34678,-5.07637 -28.34678,-11.33855 0,-6.26218 12.69108,-11.33855 28.34678,-11.33855 15.6557,0 28.34681,5.07637 28.34681,11.33855 z" /></g><g
             id="g26"><path
               id="path28"
               style="fill:none;stroke:#000000;stroke-width:0.79701;stroke-linecap:butt;stroke-linejoin:miter;stroke-miterlimit:10;stroke-dasharray:none;stroke-opacity:1"
               d="m 56.69359,0 c 0,6.26218 -12.6911,11.33855 -28.3468,11.33855 C 12.69109,11.33855 0,6.26218 0,0 c 0,-6.26218 12.69109,-11.33855 28.34679,-11.33855 15.6557,0 28.3468,5.07637 28.3468,11.33855 z" /></g><g
             id="g30"><path
               id="path32"
               style="fill:none;stroke:#000000;stroke-width:0.79701;stroke-linecap:butt;stroke-linejoin:miter;stroke-miterlimit:10;stroke-dasharray:none;stroke-opacity:1"
               d="m 113.38724,113.38724 c 0,6.26217 -12.6911,11.33854 -28.3468,11.33854 -15.6557,0 -28.34679,-5.07637 -28.34679,-11.33854" /></g><g
             id="g34"><path
               id="path36"
               style="fill:none;stroke:#000000;stroke-width:0.3985;stroke-linecap:butt;stroke-linejoin:miter;stroke-miterlimit:10;stroke-dasharray:2.98883, 2.98883;stroke-dashoffset:0;stroke-opacity:1"
               d="m 113.38724,113.38724 c 0,-6.26219 -12.6911,-11.33855 -28.3468,-11.33855 -15.6557,0 -28.34679,5.07636 -28.34679,11.33855" /></g><g
             id="g38"><path
               id="path40"
               style="fill:none;stroke:#000000;stroke-width:0.79701;stroke-linecap:butt;stroke-linejoin:miter;stroke-miterlimit:10;stroke-dasharray:none;stroke-opacity:1"
               d="m 113.38724,0 c 0,18.78702 -12.6911,34.01648 -28.3468,34.01648 C 69.38474,34.01648 56.69365,18.78702 56.69365,0" /></g><g
             id="g42"><path
               id="path44"
               style="fill:none;stroke:#000000;stroke-width:0.79701;stroke-linecap:butt;stroke-linejoin:miter;stroke-miterlimit:10;stroke-dasharray:none;stroke-opacity:1"
               d="M 0,0 C 5.6697,68.03217 51.02388,45.35504 56.69362,113.38724" /></g><g
             id="g46"><path
               id="path48"
               style="fill:none;stroke:#000000;stroke-width:0.79701;stroke-linecap:butt;stroke-linejoin:miter;stroke-miterlimit:10;stroke-dasharray:none;stroke-opacity:1"
               d="m 170.08086,0 c -5.66974,68.03217 -51.02393,45.35504 -56.69362,113.38724" /></g></g></g></g></g></svg>